<svg xmlns="http://www.w3.org/2000/svg" width="888" height="350" viewBox="0 0 888 350">
  <path d="M380.57 311.976c-.24-7.01-4.944-9.457-11.137-9.457-4.848 0-10.753 1.729-10.753 7.873 0 6.191 5.953 6.912 11.809 8.305 6.385 1.631 11.713 2.398 11.713 9.553 0 6.48-6.24 9.217-12.097 9.217-7.777 0-13.537-3.553-13.393-12.193h.96c0 8.209 5.136 11.232 12.433 11.232 5.376 0 11.137-2.4 11.137-8.305 0-6.912-6.72-7.488-12.001-8.785-5.568-1.295-11.521-2.305-11.521-9.023 0-6.818 6.193-8.834 11.713-8.834 6.721 0 11.761 2.736 12.097 10.418h-.96zm3.022-8.641v-.961h25.635v.961H396.89v33.314h-.96v-33.314h-12.338zm28.369 33.314H411v-34.275h14.018c7.057 0 10.321 2.881 10.465 8.785.096 4.512-2.544 7.775-7.345 8.832v.096c5.809.77 6.769 4.033 6.769 9.506 0 2.064.192 6.096.816 7.057h-1.057c-.575-1.441-.72-4.992-.72-7.201 0-5.617-1.2-8.881-9.072-8.881h-12.913v16.081zm0-17.041h12.816c5.041 0 9.793-2.545 9.745-8.545-.048-4.85-2.736-7.729-9.265-7.729H411.96v16.274zm59.042-17.234h1.584v34.275h-.961v-33.076h-.096l-14.545 33.076h-1.057l-14.545-33.076h-.096v33.076h-.961v-34.275h1.586l14.496 33.027h.096l14.499-33.027zm9.262 22.994l-4.561 11.281H474.6l13.92-34.275h1.25l13.537 34.275h-1.057l-4.514-11.281h-17.471zm17.089-.961l-8.16-21.072h-.098l-8.447 21.072h16.705zm8.014-22.033h1.439l23.426 33.074h.098v-33.074h.959v34.275h-1.439l-23.426-33.076h-.096v33.076h-.961v-34.275z" fill="#88C0D0"/>
  <path fill="#2E3440" d="M483.119 205.028v41.303l-78.238 37.227v-37.227L444 225.679z"/>
  <path fill="#434C5E" d="M483.119 205.028L444 225.679l-39.119-19.592L444 187.474z"/>
  <path fill="#2E3440" d="M483.119 127.558v41.3L444 187.474l-39.119 18.613v-37.229z"/>
  <path fill="#2E3440" stroke="#2E3440" stroke-width="8" stroke-miterlimit="10" d="M328.755 12.534h85.023v85.023h-85.023z"/>
  <path d="M390.616 30.311h10.414v52.075h-10.414zm-12.277 5.208h10.414v52.075h-10.414zm-12.278-9.113h10.416v52.073h-10.416zm-12.281-3.904h10.417v52.072H353.78zm-12.277 7.808h10.415v52.076h-10.415z" fill="#D8DEE9"/>
  <path d="M546.452 64.595c0 .891-.734 1.592-1.594 1.592h-11.127a1.578 1.578 0 0 1-1.594-1.592V45.53c0-.893.701-1.595 1.594-1.595h11.127c.859 0 1.594.702 1.594 1.595s-.734 1.594-1.594 1.594h-9.531v6.407h7.268a1.6 1.6 0 0 1 1.594 1.596c0 .892-.732 1.593-1.594 1.593h-7.268v6.279h9.531a1.6 1.6 0 0 1 1.594 1.596zm-20.885-8.067l4.465 7.268a1.615 1.615 0 0 1-.543 2.201c-.254.16-.541.223-.828.223-.541 0-1.053-.287-1.371-.766l-5.291-8.671h-3.252v7.874c0 .893-.734 1.563-1.594 1.563-.893 0-1.596-.67-1.596-1.563V45.594c0-.86.734-1.594 1.627-1.594h6.76c3.219 0 6.311 2.741 6.344 6.312 0 2.838-1.914 5.196-4.721 6.216zm1.563-6.184c-.031-1.785-1.498-3.156-3.314-3.156h-5.068v6.408h5.068a3.299 3.299 0 0 0 3.314-3.252zm-35.453 4.623c0-5.994 4.879-11.031 11.031-11.031 6.154 0 11.031 5.037 11.031 11.031 0 6.152-4.877 11.22-11.031 11.22-6.152 0-11.031-5.068-11.031-11.22zm3.092 0c0 4.526 3.572 8.129 7.939 8.129s7.971-3.603 7.971-8.129c0-4.368-3.604-7.938-7.971-7.938s-7.939 3.57-7.939 7.938zm-25.378.16c0-6.281 5.133-11.223 11.254-11.223 4.019 0 7.62 2.072 9.532 5.515.574.957.191 1.944-.574 2.295-.732.383-1.721.192-2.104-.573-1.498-2.487-4.018-3.984-6.854-3.984-4.367 0-8.002 3.602-8.002 7.971 0 4.397 3.635 7.841 8.002 7.841a7.966 7.966 0 0 0 6.663-3.634c.383-.766 1.563-.957 2.105-.383.764.383 1.146 1.371.572 2.104-2.104 3.252-5.514 5.164-9.341 5.164-6.121 0-11.253-4.973-11.253-11.093zm-.545 9.468c0 .891-.732 1.592-1.592 1.592h-11.127a1.578 1.578 0 0 1-1.594-1.592V45.53c0-.893.701-1.595 1.594-1.595h11.127c.859 0 1.592.702 1.592 1.595s-.732 1.594-1.592 1.594h-9.533v6.407h7.268c.861 0 1.596.702 1.596 1.596a1.6 1.6 0 0 1-1.596 1.593h-7.268v6.279h9.533a1.6 1.6 0 0 1 1.592 1.596zm-37.269-9.468c0-6.281 5.133-11.223 11.254-11.223 4.017 0 7.619 2.072 9.531 5.515.574.957.191 1.944-.572 2.295-.734.383-1.723.192-2.105-.573-1.498-2.487-4.016-3.984-6.853-3.984-4.367 0-8.003 3.602-8.003 7.971 0 4.397 3.636 7.841 8.003 7.841a7.966 7.966 0 0 0 6.662-3.634c.383-.766 1.563-.957 2.105-.383.764.383 1.146 1.371.574 2.104-2.105 3.252-5.516 5.164-9.341 5.164-6.123 0-11.255-4.973-11.255-11.093zm-5.006 9.53V45.403c0-.862.701-1.563 1.594-1.563.861 0 1.563.7 1.563 1.563v19.254c0 .893-.701 1.594-1.563 1.594a1.578 1.578 0 0 1-1.594-1.594z" fill="#2E3440"/>
  <path fill="none" stroke="#2E3440" stroke-width="8" stroke-miterlimit="10" d="M413.778 12.534h145.467v85.024H413.778"/>
</svg>
